/* XPM */
static char *result[] = {
/* columns rows colors chars-per-pixel */
"64 64 106 2 ",
"   c #00014C",
".  c #000058",
"X  c #00004C",
"o  c #010098",
"O  c #0000A8",
"+  c #0000B0",
"@  c #0000BC",
"#  c #0000D4",
"$  c #0100D4",
"%  c #000098",
"&  c #00024E",
"*  c #0002D4",
"=  c #00004E",
"-  c #00007C",
";  c #0000B2",
":  c #0000BD",
">  c #000088",
",  c #0001B0",
"<  c #0001BC",
"1  c #02007C",
"2  c #0000B1",
"3  c #0002BC",
"4  c #0200B0",
"5  c #0100B1",
"6  c #0100A8",
"7  c #0001A8",
"8  c #0102BC",
"9  c #000158",
"0  c #0100B0",
"q  c #0000AA",
"w  c #0002A8",
"e  c #0101B0",
"r  c #0000A9",
"t  c #000059",
"y  c #020298",
"u  c #000099",
"i  c #00004D",
"p  c #020098",
"a  c #000089",
"s  c #02004C",
"d  c #00009A",
"f  c #000188",
"g  c #00009B",
"h  c #020088",
"j  c #000288",
"k  c #020070",
"l  c #000070",
"z  c #000064",
"x  c #020058",
"c  c #000034",
"v  c #000035",
"b  c #000071",
"n  c #00002D",
"m  c #00002C",
"M  c #00002E",
"N  c #01004C",
"B  c #00024C",
"V  c #010058",
"C  c #000258",
"Z  c #0200D4",
"A  c #0000E0",
"S  c #0200E0",
"D  c #0000E2",
"F  c #0200A8",
"G  c #0002B0",
"H  c #0000BE",
"J  c #0100A9",
"K  c #0200BC",
"L  c #0100BC",
"P  c #00005B",
"I  c #00027C",
"U  c #00017C",
"Y  c #00007D",
"T  c #0000EC",
"R  c #0200AA",
"E  c #000170",
"W  c #01007C",
"Q  c #0000D6",
"!  c #00007E",
"~  c #000066",
"^  c #010088",
"/  c #00001C",
"(  c #010070",
")  c #01001C",
"_  c #00012C",
"`  c #00037C",
"'  c #02017C",
"]  c #0001D4",
"[  c #00017D",
"{  c #02001C",
"}  c #0002E0",
"|  c #0000D5",
" . c #0200D5",
".. c #00022C",
"X. c #02002C",
"o. c #010158",
"O. c #0100AA",
"+. c #0101BC",
"@. c #000198",
"#. c #00008A",
"$. c #000298",
"%. c #000072",
"&. c #000134",
"*. c #000234",
"=. c #000036",
"-. c #020034",
/* pixels */
"  . X o O + @ # # # # # # # # # # $ # # # # # # # # # # @ + O % & . X % O + @ # # # # # # # # # # # # # # # # $ # # * # @ + O % ",
"X . = - @ @ @ @ @ @ @ @ @ @ @ @ + + + ; @ + @ + @ + @ + @ + : > X . X - @ @ : @ @ @ @ @ @ @ @ @ + + + + @ , @ + @ + @ + < + @ > ",
"X . X 1 @ @ + @ @ @ + + @ + + + + + + + + @ 2 @ + @ ; , + @ + > X . X - : @ + @ @ @ + + @ + + + + + + + + @ + 3 + @ + + + < + > ",
"X . X - + + @ + + @ @ + + + O + + + + + @ ; @ + @ 4 + + + O + > X . X - + + @ + + @ @ + + + O + + + + + @ + @ + @ + + + + O + > ",
"X . X - + @ + 2 + + @ + + O + O @ + + @ ; + + @ + @ 5 @ 6 + 7 > X . X - + @ + + + + @ + + O + O @ + + 8 + + + @ ; @ , @ O + O > ",
"X 9 X - + 0 @ + + + + ; O + q @ + @ + O + + + 4 O + @ O + O O > X . X - + + @ + + + + + O + O @ + @ + O + + + + O + @ O + O O > ",
"X . X - + + + @ + + + O + O + w @ O 3 O O + O + O O O 6 O O + > X . X - + + + @ + + + O + O , O @ O @ O O + O + O O O O O O e > ",
"X 9 X - + , O + O O O O O + O + O O r O O O + O @ O O + + O O > X . X - + + O + O O 7 O O + O ; O O O O O w + O @ O w + + O O > ",
"X t X - O y + % O O O q % O , O O % O + O + % O O O u O O % O > i . X - O % + u O O O O % O + O O % O + O + % O q O % O O % O > ",
"X . X - O > p w % > O % O % O p % O % % O % O O O % O > % q % a s . X - O > % O % > O % O % O % % O d % 6 % q O O % O > % O % > ",
"X . X - > > > % > % > O > O % > O % f % > % > % > O > % > O g > X . X - > > > d > % > O > O % > O % > % > % > % > O > % > O % > ",
"X . X - % > % > % % % h % > > O % % % > % > % > % > % > % > > > X . X - % h % > p % % > % j > O % % % > % > % > % > % > % > > > ",
"X . X k l l z x X X X c c c c c c c c c c c v X X X X . z l l l X t X l l l z . X X X c c c c c c c c c c c c X X X X . z l b l ",
"X X c n m m m m m m m m n m m m m m m m m m m m m m m m m m m m c X v m m m M m m m m m m m m m m m m m m m m m m m m m m n m c ",
"X X X X X X X X N X X X N B N X X X X X X X X X X   X X X X X X X X X X X X X X X X X X X X X X X X X X i X X X X X X X X X X X ",
". . . V . . . . . . . . . . . . . C . . x . x . . . . . . . . . . . . . . . . . . . . . . . . . . . C . . . . . . . . . V . . . ",
"@ @ @ $ # @ @ Z # # A A A A A S A A A A A D # # # # @ @ @ @ @ 3 # # @ @ : @ @ # # # A A A A A A A D A A A A # Z # # @ @ # # @ < ",
"4 + @ + + @ @ 4 + + O + + + + + @ + @ + @ + + + + r + + @ + + @ @ + + + + + @ + + @ @ + + + O + + + + + @ + @ + @ + + + + O , F ",
"G H + + , + @ + + O + O @ 2 + @ + + + @ + @ + @ O 4 + @ 4 + + + @ + + J + @ + + 0 + @ + , O + O @ + + @ + + 4 @ + 3 + K q + O O ",
"+ + 3 + + + + + O + O @ + @ + O 2 + + 0 O + @ O + O + + @ + ; + + + O + + + : + + + + G O + O @ + @ + O + + + + O + @ O + O O O ",
"+ + + L + + + O + O + O @ 7 @ O O 2 O + O 6 O F O O + + ; @ + + + O + O + + + @ + + G O + O 4 q @ O @ O O + O + O O O O w O + q ",
"X X X X X X X s X X X X X   X X X X X X X X X X X X X X X X X X X N X X X X X X X X X X X X X X X X X X X X X X X X X X X X X X ",
". . . P . . . . . . . . . . . . . . . . . . . . . . l I > % O O O % > - l . . . . . . . . . . . . . . . . . . . . . . . . . . . ",
"- - - - - - - - - - U Y - - - - - - - - - - - l l - % O + # T T T # + R % - l E - - - Y U - - - - - - - - - - - - - - U - I - - ",
"- - - - - - - - - - - - - - - - - - - - - - - b - > O + @ # A A A # @ + O > - b - - - - - - - - - - - - 1 - - - - - - W - 1 - - ",
"- - - - - - - 1 - - - - - - - - - - - Y - - l - l - O F O @ # Q # @ O w O W l - l - - - - - - - - - - - - - - - - U - - - - - - ",
"- I - - ! I - - 1 - - - - - - - - - - - - - l l l - % O O O @ A @ O O O % - l l l - - - - - - - - - W - - - - - - - - - - - - - ",
"- - - - - - - - - - - - - - - - - - - - - - b z l - > % w @ # A # @ O % > I l z l - - - - - - - - - - U - - - - - - - - - - - - ",
"- - - - - - - - - - - - - - - - - - - - - - . z l % O + @ # A A A # @ 4 O % l ~ . - - - - W - U - - - - - - - - - - W - - - - - ",
"- - - - I - - W - W - - - - - - - - - - - - X . % ^ > - l z > + > z l - > > % . X - Y - - - - - Y - - - - - - - - - - - - - - - ",
"- - - - I - - - - - - - - - - - - - - - - - X z O i / / / m b + ( m / / ) X O z X - - - - - - - - - - - - - - - - - - - - - - - ",
"- - - - - - - - - - - - - - - - - - - - - - X l @ X m / _ c l + k c m / n X @ l X - - - - - W - - - - - - - - - - - - - - - - - ",
"- - - - - - - - - - - ` - - - - - - - - - - X > O - X X l O > + > O l X X - O > X - - Y - - - - - - - - - - - - - - - - - - - - ",
"- - - - - - - - - - - - - - I - - ' - - Y - X > + # # # # # l + l $ # # ] # + > X - U U - - - ! Y - - - - - - - - - - - - U - U ",
"- - - - - - W U - - - - - - - - - - - - - - X - F # # @ @ H c + c L @ @ # # O - X - - U - - - - - - - - - - - - - - - - - - - - ",
"- - - - - - - - - - - - - - I - - - - - - - X . - % @ + + > / # / > + 2 @ % - . X - - - - - - - - - - - 1 - - - - - - - U - - - ",
"- - - - - - - - - - - - - - - - - - - - - - . B c l @ @ + - . # C - + @ @ l c X . 1 1 - - - W - - - - - W - I 1 Y ! - - - - - - ",
"- - Y W - - - - - - - - [ - - - - - - - - - z . X c % q @ + # # # + @ O % c X . z - - - - Y - - - - - - [ - - - - - - - - - - - ",
"- - - - - W - - - - - - - - - - - - - - - - l z . X > O @ # T T T # K O > X t z l - - - - - - - - Y - - - ! - - - - - - - - - - ",
"- - - - - - - I - - - - - - - - - - - - - - - l z X - % > z / { / z > % - X z l - - - - - - - Y - - - - - - - ! - - - - - - - - ",
"- - - - - - - - - - - - - - - - - - - - - - - - l z l % z X X X X X z % l z l - - - Y - - - - - - - - - - - - - - - - - - - Y - ",
"- ! - - - - - - - - - - - - - - - - - - - - - ! - l z z . . t . . . . z z l - - - - - - - - - - - - - - - - - - Y - - - - - - - ",
"- - - - - I - - - - - - - - - - - - - - - - - - - - . 9 z z z z z z z . . ! - - - - - - U - - - - - - - - - I - - - - - - - - - ",
"@ @ @ ] # @ @ # # # A D A A A A A A A A A } # # | # @ @ @ @ @ @ # # : @ @ @ @ # #  .A A A A A A A A A A A A # * ] # @ @ # # @ @ ",
"+ + @ + + @ H + + + O + 2 + + + K + @ + @ + + + 4 O + + @ + + @ @ + ; + O + + @ , + @ @ + + + O + + + + + @ G @ + @ + + + + F + ",
"+ @ + + + , H + + O + O @ + + @ + + + @ ; @ + 3 O + + @ + + + + @ + + O + + @ G + + + @ 4 + O + O @ + + @ + + + @ + @ 4 @ O + O ",
"+ + @ + + + + + O + O @ + @ + O + + + + O + @ O + O + + @ + + + + + O + O + + @ 2 + + + + q + O @ + @ + O + + + + O + @ O + O O ",
"+ + + @ + + + O + O + O K O @ O O + O 2 O O O O O O + + + @ + + + O + O + G + + @ + + ; O + O + O @ O @ O O + O + O O O w O O + ",
"m m m m m m ..m m m M m m m m m m X.m m m m m m m m m m m X.m m m m m m m X.m m m m m m m m m m m m m m m m m m m m m ..m m m m ",
"X X X X X X X X X X X X X X X X X X X X X s X X X X X X X s X X X X X X X X X X X X X X X X X X X X X X X X B X X X X X X X X X ",
". . . . . o.. . . . . . . . . . t . . . . C . . . . . . . C . . . . . . . V . . . . . . . . . . . . . . . . . . . . . . . . . . ",
"# # # # # # # # # # # @ + O % N . X u O + < # # # # # # # # # # # # # # # # # # # # # @ + O % X V X % O + @ # # # # # # # # # # ",
"+ + + @ + @ + @ 4 L + @ + @ > X . X - @ @ @ @ @ @ @ K @ @ @ @ ; + + + @ + @ + @ + @ + @ + @ > X . X - @ @ @ @ @ @ @ @ @ @ + + 0 ",
"+ + + + @ + @ + @ + + + @ + > X . X - @ @ + @ @ @ G + 3 + ; + ; + + + + < + @ + @ + + + @ + > X . X - @ @ + @ @ @ + + + + + + 4 ",
"+ + , @ + H + @ + + + + O + > X . X - + + @ + + @ @ + + + O.+ + + + ; L + @ + @ + + + + r + > X . i - + + @ + + @ @ + O + + + + ",
"+ + @ + + + @ + @ + @ O + O > X . X - + +.; + + + @ + 0 O + O @ + + @ + + + @ + @ + @ O + O > X . X - + @ + + + + @ + + O @ + ; ",
"@ + O + ; + + O + @ O + O O > X . X - + + 3 + + + + + O + O @ + @ + O , 4 + 4 O + @ O + O O > X . X - + + @ + + + + + O < + @ @ ",
"O K O O + O + O O O O O O + > X . X - + G + @ + + + O + O + F @ w @ O O + O + O O O O O w + > i . X I 0 4 + @ + + 0 O + O @ O O ",
"O O O 6 7 + O @ O O + + O O > X . X - + + O G O O O O O + O + O O O O O O + O @ F O + + O O > X . X - + + O + O O O O O + O O O ",
"% O + O + % O O O % F O % 6 > X . X - O o + % O O O O % O + O O % O + O + % O O O % w O % O > X . X - O % + % O O O O + O O % % ",
"O % % O % O O O % O > % O p > X C X - O > % O % > O % O % O % % O % % O % r O O % 6 > % O % > X . X - O > % O @.> O % O % % 6 F ",
"p > % ^ % f % > O > % > O % j X . X - > > > % > % > O > O % > O % > % > % > % > O > % > O % > X . X - > > > u > % > O % > O % % ",
"g % > % > % > % > % > % > > > X V X - % > % > % % % > % > > r % % % > % > % > % > % > % #.^ > X . B - $.> % > % % % > j O % % % ",
"c c c c c c X X X X . z l l %.X . X l l l z . X X X &.c c c c c c c *.c c =.X X X X . z l l l X . X l l l z . X X X c c -.c c l "
};
