/* XPM */
static char *result[] = {
/* columns rows colors chars-per-pixel */
"64 64 175 2 ",
"   c gray22",
".  c #3A3838",
"X  c #393838",
"o  c #38383A",
"O  c #383A38",
"+  c gray33",
"@  c #484848",
"#  c #545456",
"$  c #555454",
"%  c #4A4848",
"&  c #A40000",
"*  c #A50001",
"=  c #980002",
"-  c #980000",
";  c #700000",
":  c #545554",
">  c gray66",
",  c #989898",
"<  c #7C7C7C",
"1  c #EC0000",
"2  c #EC0002",
"3  c #E00000",
"4  c #D40000",
"5  c #C80000",
"6  c #BC0000",
"7  c #880002",
"8  c #7C0000",
"9  c #640000",
"0  c #880000",
"q  c #4C0000",
"w  c #2C2C2C",
"e  c #484849",
"r  c gray55",
"t  c #646464",
"y  c gray44",
"u  c #D60000",
"i  c #B00000",
"p  c #C80200",
"a  c #580100",
"s  c #580000",
"d  c #4C4C4C",
"f  c #400000",
"g  c #28200C",
"h  c #7D7C7C",
"j  c #646664",
"k  c #9A0000",
"l  c #343434",
"z  c #2C2C2D",
"x  c #BC0100",
"c  c #580200",
"v  c gray25",
"b  c #BE0000",
"n  c #700001",
"m  c #8A0000",
"M  c #4E4C4C",
"N  c #2E2C2C",
"B  c #202020",
"V  c #2C2C2E",
"C  c #2C2D2C",
"Z  c #2D2C2C",
"A  c #565454",
"S  c #5C5D5C",
"D  c gray36",
"F  c #FCA85C",
"G  c #DC8854",
"H  c #C87C4C",
"J  c #BC7848",
"K  c #BD7848",
"L  c #A86840",
"P  c #ED0000",
"I  c #B00200",
"U  c #744C28",
"Y  c #B47044",
"T  c #885830",
"R  c #6C4824",
"E  c #9C6038",
"W  c #C87D4C",
"Q  c #403018",
"!  c #AA6840",
"~  c #A40200",
"^  c #885930",
"/  c #5C4020",
"(  c #744D28",
")  c #A96840",
"_  c #7C0001",
"`  c #400100",
"'  c #754C28",
"]  c #885832",
"[  c #543C1C",
"{  c #423018",
"}  c #5C4021",
"|  c #410000",
" . c #202022",
".. c #343436",
"X. c #404140",
"o. c #545455",
"O. c #383938",
"+. c #9A989A",
"@. c #A80000",
"#. c #890000",
"$. c #8E8C8C",
"%. c #7C7C7E",
"&. c #A90000",
"*. c #7D0000",
"=. c #7C0100",
"-. c #7C0200",
";. c #4C0001",
":. c #7C7C7D",
">. c #980001",
",. c #700100",
"<. c #640001",
"1. c #7E7C7C",
"2. c #700200",
"3. c #7C7D7C",
"4. c #656464",
"5. c #990000",
"6. c #4E0000",
"7. c #660000",
"8. c #555456",
"9. c #980200",
"0. c #4D0100",
"q. c #4C0100",
"w. c #4C4C4E",
"e. c #580001",
"r. c #4C0200",
"t. c #4C0002",
"y. c #2F2C2C",
"u. c #2C2E2C",
"i. c #202021",
"p. c #383839",
"a. c #DE8854",
"s. c #BC784A",
"d. c #BC7A48",
"f. c #BD0000",
"g. c #B20000",
"h. c #C80002",
"j. c #764C28",
"k. c #A86842",
"l. c #DD8854",
"z. c #6D4824",
"x. c #744C2A",
"c. c #A40100",
"v. c #720000",
"b. c #9C6039",
"n. c #A60000",
"m. c #A40002",
"M. c #700002",
"N. c #A50000",
"B. c #6C4826",
"V. c #5C4220",
"C. c #5D4020",
"Z. c #494848",
"A. c #720002",
"S. c #400002",
"D. c #545654",
"F. c #640100",
"G. c #7C0002",
"H. c #580002",
"J. c #484A48",
"K. c #48484A",
"L. c gray19",
"P. c #D40100",
"I. c #A86A40",
"U. c #484948",
"Y. c #640200",
"T. c #6C4825",
"R. c #885A30",
"E. c #885831",
"W. c #A86940",
"Q. c #5A0000",
"!. c #C90000",
"~. c #403218",
"^. c #563C1C",
"/. c #543E1C",
"(. c #494948",
/* pixels */
"                                            . X                             o                       o                   o     O ",
"+   + @ @ @ @ @ + @ @ @ @ @ @ + @   @ @ @ @ @ @ @ + + + # + + @ @ @ @ @ @ @ @ @ $ + + + + + + @ @ @ @       @ % + + @ @ @ @ @ o ",
"  & * = - - - - - - - - ; @ @ : > > , , , , , , , , , , , , , , , , , , < @   + 1 1 1 2 3 3 3 3 3 3 4 4 4 4 4 5 5 5 5 6 6 6 & @ ",
"@ & 7 8 8 - 9 ; - 9 0 ; q w e + > r t r t r t r t r y r y r t r t r r < + w @   u & 5 i 5 i i 5 ; 5 8 5 i p 0 i & 8 5 - 5 & 8 w ",
"@ - ; a ; 9 ; ; s ; 9 s q w @ + , r t t < t + < < + y < < + y < + < y + d w @ + 4 & & 8 9 & 0 ; 0 & 8 0 & & 0 & 8 0 & s & ; 9 w ",
"@ - s ; ; s ; ; ; s ; f g w @ : , t r < t < + < t h : < + j t < # y t + d w @ @ 4 ; & 9 0 & 9 & ; & 8 & 0 & 9 & k 8 & 8 & ; q w ",
"@ 0 ; s 9 ; s ; s 9 ; s g w @ + r r t < t t y < + t + < t + y t t + < # l w   @ 6 ; & 8 & 0 9 & ; ; & & ; & 0 & & 8 & s & 0 q z ",
"@ 8 s ; ; s ; ; s ; s f g w @ @ r r t < + < + < + < + y t + t < + y t + d w   @ x = & 9 0 & 8 0 ; 0 8 & 0 & 9 & 8 0 & 8 & ; f w ",
"@ 8 ; c 9 f s s f s 9 s g w   + y y + + v t + + t : v $ t + t + v t + + l w   @ b ; n s ; ; q m q ; s 0 q ; q 0 9 q ; 0 ; 0 f w ",
"@ s q q q g g g g g g g g w   @ t d d d d d d d d d M d l l l l l l l l l N   @ 0 9 9 9 9 9 9 9 9 9 9 s s s s s s s s s f f f w ",
"@ @ w w w w w w w w B B B w . + @ w w w w V B B B B B C w B B B B w w w w w @ +   w w w w w w w w w w w B B B B B w w w w Z w z ",
"+         @ @ @ @           @   @ @ @ @ @ @ @   o   + @ @ @     @ @ @ @ @ @ +   @ + $ A + S t t D + A @ @ v   v +   + @ @ @ +   ",
"1 4 4 4 6 6 6 6 6 6 6 6 6 6 b & @ + @ F F G G G G G G H H H H H H H J K J J J J J J J J J J J J J J J J L @ v + 1 P 4 4 4 4 4 4 ",
"I 0 0 i - 8 I 8 - 0 i 9 i 0 & f   @ + F U Y H T J R T J T T H E L T T T L T L T L T H R H T E J H E W L Q   @   1 5 8 i 0 i 0 i ",
"0 & 0 & 8 0 0 9 & 0 9 0 & & ; f N @ @ G Y U L T ! L T L R L U R T L T L T L R L L T R L T L U T L U L U Q   @ + 5 i 8 ~ 0 8 & - ",
"; & & 0 - 9 & 8 0 0 - 9 & 0 ; f w   @ G U L T E T T R T T U L T R L T ^ R T T T L / T T L U L U L L ( U Q w v @ 5 8 & & & 8 & 8 ",
"& 0 0 & 0 8 8 0 8 & - 9 & 9 ; f w   @ G U ) L T L R T L R U L R T L T T T L R L T / L R L U T U L U L U Q w   @ 5 i 8 & _ & - 8 ",
"; & 9 ~ ; 0 8 - 9 & 9 0 & & ; f w @ # G Y / L T L T R T / T U R L T T / T L R T / T L R T L U T L U L U Q B   @ i 8 & & s & 8 0 ",
"; i 9 ; q 8 ; - ; - ; s - ; ; ` w @ + Y L U T / U E ' T R U T / U E U E R T U ] T / E U U T [ U E U T U { B v + i & 8 ; s ; - ; ",
"f q q q q q q q q q q q q f f f   @ A L R R R R R R R R R R R R R / / / / / / / / / } / / / / / / / / Q Q B @   & 9 f 9 f f 9 | ",
"w w w B Z w w B B B w w w B  .w   @ o @   l w w w w w w l ..    l w w w B B B B B w z w B B B B w w w w w . @ + @ w w w w w w w ",
"A + @     @ +   +   @ @         @ @ + @ @ @ v   v   v   v @ @ @ +   + @ X.      v v @ @ + v     v @ @ @ + @ +   o.v O.v + @ @ @ ",
"+ > > , +., , , , , r r r r r r r r r r r r r r r r r < @ + + @.@.- - - - - - - - - - 0 0 0 0 0 0 0 0 0 0 0 0 0 0 0 #.0 0 0 8 @ ",
"+ > t < r t $.t r t < t < t < , t < t < t r %.d < , +     @ + &.0 9 - 8 0 ; 8 0 ; 0 8 0 9 s 8 ; 9 ; *.9 ; =.8 ; 8 9 ; -.;.8 f w ",
"  > < t < y < t + t :.< t y t < t d < + < t d t < + <   w @ D >.0 8 8 s 8 s ; 9 8 ; s 8 s ,.8 s 8 9 8 9 8 ; 8 s 8 8 <.8 <.9 f w ",
"@ r d < 1.+ t d < d < + < t y < d t < + t < t d t < +   w + t - 0 9 8 9 _ s 8 9 8 8 9 8 9 8 2.s 8 9 9 8 8 9 8 ; 8 8 9 8 q 9 f w ",
"@ r 3.t < v < d $ t < t + t :.t t d t < d < t d < + d   w + D - 9 8 9 8 ; s ; 8 9 8 s ; s ; 8 9 ; 9 ; 9 8 ; 8 s 8 9 ; 8 9 9 f w ",
"+ r + d < v t t < d < d < d < t d 4.< t d < d t t t <   w @ + - 5.9 8 9 8 ; 8 ; 9 8 s 8 q 9 9 6.8 q 8 q 8 q 8 8 ; s q 7.; 9 f w ",
"@ , < d + 8.+ d + v + + t d t + + t + + d + y + y + +   w   + 9.8 9 8 9 ; q 9 9 9 9 s ; 9 ; q 8 q 9 8 q 9 ; q 8 0.8 q.8 9 9 f w ",
"@ < y d d d d d d d d d d w.d d d v v v v v v v v v     w   + 8 s s s s s s s s s s e.s s e.q q q q q q r.q q t.q q f q 9 q f y.",
"@ @   w w w w w w w u.w w w w w w w w w X     w w w w w w @ @ @ w w w w u.w w w i.B B B B w       w B B B w w w w w w w w w w w ",
"+ + + + + @ @   @       @ + t t + + + @ @ @ v v     v p.  v + @ @ @ +   + @ + @ v   v   v @ + + @ @ v   v @ @ @ +   + @ @ @ +   ",
"6 6 6 6 6 6 6 6 6 6 & @   + G a.G G G G G G J s.J J s.J J d.J J J J J J J J J L @ + + 5 1 4 4 4 4 4 4 4 4 4 f.6 6 6 6 6 6 6 6 6 ",
"& i & g.- 5 i i h.& f   @   G L R L U L L R L T L L j.L T R k.L R L L U L T L Q   @ + 4 & 8 & ; & & 9 & 8 0 8 & ; & 0 & _ & ; & ",
"& 8 0 & - & 8 & 0 ; f w @ + l.R L T T L T L E U L T T U T T L T z.L U T L R L Q   + + 4 & s & ; & 0 9 & 0 & 8 0 0 9.; - 8 - 0 ; ",
"0 8 & - 8 & 8 - & ; f w @   G R L L T E L x.L U L T L / L [ T T L T U E L T L Q   + t 4 & 8 & ; & 0 & 0 & & 8 & ; - 0 & - 8 & ; ",
"& 7 8 & - & - 8 0 ; f   @ + G E R L T L T / E T T T U T L R ) T R T E U T L T Q   + t 4 8 & & ; & 9 & c.8 -.& =.& 0 - - 0 8 v.0 ",
"& 0 8 & 8 & 8 - & ; f   @ @ G R L T / E L U T T L T L U T [ R E R L b.U L T L Q   @ + 5 & 8 & & ; n.0 0 8 & 8 & ; - 0 & 8 0 m.; ",
"; ; 0 - M.; - ; ; ; f   @ @ E R L L / L T U L U L R L / T R L T R E U E L R T Q w @ + 5 & s & ; N.& 0 & 0 & 8 & ; - ; - 8 & & ; ",
"f f q q q q q q q f f w @ @ L R R R R B.R R R R V./ / / / / / / / / / / / C.Q Q w @ @ & 9 9 9 9 9 9 9 9 9 9 9 9 9 9 9 s s s s f ",
"w w w w w w w w w w w w @ + @ w B B B B w w       w B B B B B w w w w N w N w w   @ @ Z.w w w w     @   w w B B B w z w w w w w ",
"+ @ +   @     @ @     .   @ @     p.@ @ @ @ @ : + @ @       + @ @ @ +   @   @   @ @ + @ +   + @ + D t + d @ @   + @ + @ +   +   ",
"X @.8 8 - - - - - 0 0 0 0 0 0 0 0 0 0 0 0 0 0 0 0 0 0 0 0 0 0 8   +   1 1 4 4 4 4 4 4 4 4 6 6 6 b 6 6 6 6 6 6 6 6 6 6 6 6 6 & @ ",
"+ - 9 9 ; 8 s 8 8 9 8 8 9 8 9 ; 8 s 8 9 8 ; 8 s 8 s 8 8 9 9 8 f   @ + 1 & & 9 & 9 & s & ; & s & 0 s - 0 ; & 0 8 & 8 - ; 0 c.f w ",
"@ - 9 q 8 ; s -.; 8 9 8 s ; q 8 8 s 8 q ; 8 A.s 8 9 8 9 8 9 8 S.w % @ 4 0 & 9 0 9 8 s 0 s - 8 & s & 9 & ; 0 ; & 0 8 k & 9 0 f w ",
"@ - 9 q 8 s ; 9 s 8 s 8 ; 9 ; 8 s 8 ; ; ;.9 8 q 8 t.; s ; ; 9 f w   @ u 0 & 9 9 0 & 8 s & 8 s - & s & ; ; & 2.& 8 & ; 0 9 & f w ",
"  - 9 9 8 ; s 8 ; 9 8 8 9 8 q ; 8 s 8 q ; 8 q 8 8 9 8 8 8 9 9 f w p.@ 4 & 9 & 0 9 & s & 2.- 8 8 s 0 9 & 8 0 - 0 - 8 ; & 0 & f w ",
"+ - 9 q ; 8 s 8 s 8 s 8 s 8 9 8 s s 8 q ; 9 8 9 ; s -.s ; 9 8 f B   D.4 & 9 9 & 9 8 s & s & s - s & 9 0 ; & ; 8 & =.= 0 9 ; f w ",
"  - 9 q 8 s ; 9 ; 8 F.8 ; ; ; G.8 s ; 9 q s 8 r.8 9 8 9 8 9 8 f B   + 5 ; & 9 0 9 & s 8 N.8 s - ; 0 9 & ; & ; & 8 - ; & 9 & f w ",
"+ 8 q q s s s s H.s s q q q q 6.q q q q q q q q q t.q q q q q f w J.+ & 9 9 9 9 9 9 9 9 9 s s s s s q q q q q q q q q q q f f w ",
"  @ w w Z w w w w w w w       w B B B B w w w B B B B w w B B w w @   e w w C w w w B B B w l   l w B w w w w B B B w z w z w w ",
"+   D.  + @ + @ @ @ @ + t t + @ +   + @ + K.v O.    v @ + @ @   @ @ + O + @ @ @ @ @ @ @ @ d + + + d @ J.@ @   L.B B L.  @ J.+ @ ",
"4 4 4 4 4 6 6 6 6 6 6 6 6 6 6 6 6 & @ D.@ F F G G G G G l.G G J J J J J J J J s.J J J J J J L @   + 1 4 4 4 P.4 6 6 6 6 6 6 6 6 ",
"8 & s & & 9 - 9 & 8 5 8 & 9 & 8 & f w @ @ G L L L I.R L [ L T L R L R L [ L R L R L / L ' R Q   U.+ 4 & 9 0 & s & ; & ; & 9 & ; ",
"& 8 8 & 8 & Y.- 8 9 & s 8 9 0 9 0 f w @ @ G T L U L T.U [ T E T L T R [ [ R T T U T / L R L Q l e + 4 9 & s & ; & ; 0 & ; & 0 q ",
"& 8 s 8 & 9 - 9 8 & 8 s & 0 9 - 8 f C @ v G R.E.U L R R.T L V.L [ W.[ [ ! R L R T / T E.R U Q w @ + 4 9 & ; ; & & 0 ; 0 ; 9 ; 0 ",
"8 - s - 9 9 & 9 & 8 & s 8 ; 9 & 9 f w @ v G L [ U L R L [ L T E R L [ [ T R L R L T / j.E R Q w @ + 4 & 9 s & 0 ; ; & ; & 9 ; & ",
"9 & 8 & 9 n.9 0 & 9 & *.Q.0 & 8 0 f w @ v G [ L L R L T U T / T [ [ [ [ R T T z.T U / T U R Q w @ @ 4 9 & 0 & ; & 0 ; ; s & ; & ",
"9 & 8 8 9 - - 9 - 9 8 s & 9 & 9 - f w @ @ G [ L U L R T T T [ E [ [ [ L T R L T R L / L / T Q w   @ 4 9 & s ; s & ; & ; s 9 & q ",
"8 - s & 9 9 0 9 8 8 & s & 9 ; 0 8 f w @ + H L [ U L R ) [ T R L R [ U R L R T L R T U T T.T Q w   @ !.9 9 s & s & ; & ; & 9 & ; ",
"q q q 6.6.6.q q q q q q q q q q f f w @ @ L ~.Q Q Q Q [ [ [ ^.[ [ /.[ [ [ [ [ [ [ [ [ [ [ Q Q B @ + & f f q q q q q q q q q q q ",
"w w w w w w w w w C w w w w w w w w w Z.+ @   l l w w w w w w w w w w w w w w B  .B B B w B B B   @ @ w w w w w w B B B B B w w ",
". + O +       @ @ @ @ @ + +   @ (.@ @ + + + + + @ @ @ + @ @ @ + @ @   @ @ @ v     v     v @ v   v + U.@   + @ @ @ @ v   v @ K.@ ",
"+ o.+ + + + + + + + + + + + + + + + + + + + + + + + + + + + + + + + + + + + + + + + + + + + + + + + + + + + + + + + + + + + + + "
};
