/* XPM */
static char *result[] = {
/* columns rows colors chars-per-pixel */
"64 64 65 1 ",
"  c #483818",
". c #A86840",
"X c #885830",
"o c #A0643C",
"O c #BC7848",
"+ c #A1643C",
"@ c #543C1C",
"# c #5C4020",
"$ c #6C4824",
"% c #744C28",
"& c #80502C",
"* c #895830",
"= c #9C6038",
"- c #905C34",
"; c #80502E",
": c #82502C",
"> c #885832",
", c #6C4826",
"< c #6C4924",
"1 c #48381A",
"2 c #9C6238",
"3 c #8A5830",
"4 c #885930",
"5 c #5C4021",
"6 c #6C4A24",
"7 c #A0663D",
"8 c #754C28",
"9 c #543D1C",
"0 c #5D4020",
"q c #A0643D",
"w c #6D4824",
"e c #80502D",
"r c #A0653C",
"t c #80522C",
"y c #6E4824",
"u c #80512C",
"i c #744D28",
"p c #81502C",
"a c #543C1D",
"s c #6C4825",
"d c #744E28",
"f c #885831",
"g c #885A30",
"h c #6E4924",
"j c #A0643E",
"k c #5C4120",
"l c #744C2A",
"z c #885A31",
"x c #6D4A24",
"c c #5E4020",
"v c #403018",
"b c #5C4022",
"n c #905D34",
"m c #5C4220",
"M c #40301A",
"N c #543C1E",
"B c #382C14",
"V c #553C1C",
"C c #744C29",
"Z c #543E1C",
"A c #925C34",
"S c #9C6039",
"D c #483819",
"F c #A0663C",
"G c #82502D",
/* pixels */
" .XXXXXXXoo.......ooo..ooooo...XXO+oooooooooooooXXXXXXXoooooXXXX",
"@X####$$$$$%%%%%%$&&*oo=-o=-XX&# =&;&&:&&XXXXXX&&&%%&&>X&&,$<$$@",
"@X###$$$$$$$$$$$#$$&XooXX=o-X&&#12&&XXXX--=o===-3XXXX=-X&$$$$$$@",
"@4#5##6$$#######$$%&XX&%&XX-XX&#@o--=o==ooo.o7ooo.o===X&%%%%8%$9",
"@X<$$##0$$##$$$$%XX*&%$$%&XX--X$@.ooo.ooooooqoo=o.=XX*&%%&&&&%$@",
" Xw$$$$$$$$$$$&&X==X&%%&&e&XX==$#.oroooooo=-X3XXX-XX&%%$%&&&%$$@",
" X$$$$$$$$$%:XXXXXX&%%&&&&XXXX-$#.oo=-X==-XXt&&&&XX3&$$$%%%$y$$#",
" X$$$$$$$$%XXXX&&%%$$%&u&&XXXXX$@.=-XX&=-4&&&&&&&XXXe$$$$$$$$$$#",
" X###$$$$i&XX&&%$$$$$%%&&&&XXXX$@.-X&&&-X&&&&&&&%&XX&$$$$$$$$$$#",
" X#####$$&X;%$$$$$6$$%%&&&&:&XX$#oX&&&&-X&&&&&&%$%&XX%$$$$$$#$$#",
"@X###$$$&&&$$$$$$$$$$%&&&&ppuXX$@oXXX=o-X&p&&&%$$$%>X&%$$$$##$$@",
"aX$s$8&&&&$$$$$$$$$$%&&&&&&&&XX$aoXX=..-X&&&%$$$$$$&XX&%$$$$$$$@",
"@X$%&XXX&$$$$$$$$$$%&&&&&&&&&&&$@q-o...X&&&$$$y$6$$d&:&&&%s$$$$@",
"#o&&&&XX&$$$$$$$6$%%&e&&&&&&&XX$#o==..-Xu&$$$$$$$$$$%&X-X&%%%%$#",
"#.&%$$&X%$#$<$$$$$$%%%&&&&XXXX-$@oXXXX&&%<$$$$$$$$$$%&X=X&&%%%%#",
"#o$$$$&&$###$$$$$$$%$%%&&XX--XX$@oXXX&%$$$$<$y$$$$$%&XXf&&%$$d&#",
"@X##$%X%$###$$$$$%%$$%&&XXXXX&&#@oXX&$6$$$$$$$$$$$%&XX&%$$$$$$%#",
"@X#0$&X%###$$$%&XX&t&&XXXXe%%%&$@oX&%$$$$,$$$$%&&&XXX&%$$$$$$$%#",
"@X##$&X$###$&XXXXXXXXXX&%$$$$&X$@o&;$$$$$$%&&&&XXXXX&$$$$%%%$$%#",
"@X#<%X4$##$&XXXX&&&XX&$$$$$%&gX$ =&%$$$$$%&XXXXXXXt%$$$6$%%%$%X$",
" g#$&X&$h$&XX&&$$$$d$$$$$$&XXgX# =%%%&&&&&&&&&&&&%$$$$$$$%%%%&-$",
" X#$&X&$$&X&%$$$##$$$$$$$&XXXX&# =&&XXXXX&%$$$%%%$$$$$$%%%%&X-=$",
" X#$&X&%&X&%$##@###$6$$%&XXX&&%# =XXXX&:&$$$$$%%%$$$%&&:%%&XjoX#",
" *$eX&&&Xt%$##@@#$6$$%&XXX&&&&%k oXX&&$$$$$$$$$$%%%&&&&&%%X=oX&@",
"@X&X4XXX&%$##@@#$%&&&XXXX&&&&&&#@o&%$$$$$$$$$$$%%&&&&&&&%lX=X%$@",
"@oXXXXX&%$$####$%XXXXXX&&&&&XXX$@=%$$$$$$$$$$w%%&&:&&&&e%&zX&x$#",
"@.XXXX&%$$$#c$$&X&&&&&&&&&*XX--$ X$$s$$$$$$$$%&&&&&&&&&&%&XX&%;$",
"#.XXX&$$$$$$$%&X&%$%&XXXXXXXXX&#vX$$$$$,$$$$$&&&u&&&&&&%%X--XXX$",
"bOXX&$$$$$$%&XXX&%%&X-==XXX&%$w@vX$$$$$$$$$$%&&&&&&&&&&&&X==4X&#",
"$OX&$$$$$$%&XXX>&&XXXXXX&&8$$$$@vX$$$$$$6$%%&&t&&&&&&XXXXXXX&%$@",
"$Op$$$$$%&&XnXXXXXX&%%%%$$$$$$$# X$$$$<%&&&&&&&&&&;XXX-X>&%$$$$@",
"aX#@@@@####$$$$$$###@@@@@@##### vX#m#####$$$#####$$$$$$$###@@@@v",
"@X Mvvv    @@@@N@   vvvvvv     vB&       @@@     @@@###V   vvvvB",
"#.XXXX3XX=oo...o=*XXXXXXXXXX==X$@oXX===ooooo===oooo...o===XXXXX$",
"@X$$$$$$$$X..o-&$$$$$$$$$$$%%$$# X$8&&&XXXX&&&XX=ooo.oX&&&%$$$$a",
"@X$$$$$$$$XooX&$$$$$$$$$$%%%$$$# =%%&&&&&&&&&X=oooooooXX&&&%$$$#",
"@X#$$$$$C&XXX%$$$$$$$$$%%&%$$$$# =%&&&&%%%%&X-=oooo=-*XXXXXXX&&#",
"@X#$$$%&XX&&%$$$$$$$$$$%&&%$$$%# =%%$$$$$$&XX-XX==-XX&XXX-===-X$",
"ZX$y%&XXXu%%%&%%$$$$$$%%%$$$$%d# X$$$$$$$%XXXXXX=-X&&&XX-=-XXXX#",
"@X$&XXX&&%%%&&&%$$$$%%%$$$$$$$$#vX$$$$$$$&XgX&&=-3e&&&X--XX&p%$@",
"@X&XX&%%$%%%%%%$$$$$%%%$$$$%%$$@vX$$$$,$&XXX&&XX-A------XX&%$$$ ",
"@o&&%$$$$%%$$$$$,$$$$it&&&XXX&%#vX$6$$$&X-X&&XX====oo=-XX&%$$$# ",
"#.&$$$$$$$$$<$$$$$$$$&XXXX--XXX# =&&&&XX==X&X>=-XXXXXXXX&&%$$$$ ",
"#o$$$,$$$$$$$$$$$$$%&&&&&&XX&&X$@o>X-S--==--So=XX&&&&XXgXX&&&&%#",
"@X$$$$%$$$$$$$$$$%&&&&$$$y$$$$%#D=&XX-XXXXo..o-XXXXXXXX-XXXXXXX#",
"@X$$$%%%$$$%&&&&&u&&$$$$#####$$@vX%&X&%%&X-o=XX----XXX&&&&&%%%$#",
"@X$$%&&%%&&XXX>XX&$$$##k####### vX%&&$$$%&XX&&&XXXX&&%%$$$$$$$$V",
"@X$&&&&&&XXXX&&&%$$m####9@@@@## v=;&%%%&X-X&$$$$%%$$%&&&&&%%$$$c",
"@X&&&&&XXX>&$$$$$##c###@@@@@@#$@ oXX&XXX=-X$$$$$$$$&&XXXXX&&&&X#",
"@F&&XXX-XX&$$$##5###@@@@@#$$$$%$#oXXXX&XXX&s$$$$$%&XX&&&%%$$$%&#",
"#o&XX-=-X&%$$$####@@@@@@#$&XXX-$#oX&&%%&&X3X&;i&XXX&%$$$$#####$@",
"#oX-==-X&&%$$$##@@@@@@##$XoOO.o$@=%%%&&&Xoo=XXXXooX%$$$$$#c@@@# ",
"#.-=-XXX&&%$$$##@@@@5$lGX-.OO.X# =&&X*XX=.oXX;iX=oX&$$$$$$#####@",
"#.-X*XXX&&&$$,##@@@#$&=o-X-=--X$ oXXXXXX3X&%$$$$&XXX&&$$$$$$$$$@",
"#.XX&XXX&&%$$$$0m$<$&Xoo-XXXXX-$#oX>&&&&X&$y$$$$$%&XXX;$$$$$$$$@",
"#o&&&&&&&&%$$$%%%&&&XXXX&&&&&;X$@o&%$%&&&<$$$$s$$$$$%&&&&&&&&%%#",
"@X$$%%%%&&&&&&Xu&%$%%$$$$$$$$%%# X$$$&&&$$##$$$$$$$$$$&XXXXXg&&#",
"@X$$$$$%&&XXXX&$$$<$s$6$$$$$$$$@vX$$%&$$###m$$$$$$###$$%t&&&XXp#",
"@X$$$%&&XXXXX&$$$$$,$$$$<%$y$$$@vX$%%$#@@#c##$$$$$$##$$$$$$$&XX#",
"@X%&&&XX3&&&&$$$$$$$$$$$$$$s$$$@vX%%$#@@######$,$$,$$$$$$$$$$%&$",
"@o&&&&%$$$$$$$$$$$$$$$,$$$$$$$$@ =&$$#########$$$$$ws$$$$$s$$$$#",
"#o$$$$#####$$$$%%%%$$$$$$$$$%&&# =d$$$$$$$#####$$$$$$$$$$######@",
"5o$$$$#####w$$$%%%%$$$$$$$$$%&&# =%$$$$$$$#####$$$$$$$$$$##c###@",
"@X@     @@##$$&&&&&&&&&&&%&&&XX# X$$#$$$$$####################@v"
};
