/* XPM */
static char *e82396b594dc47dea0f6014e1f8f82e12kFxon5RaX9upCBw[] = {
/* columns rows colors chars-per-pixel */
"64 64 93 2 ",
"   c #5C4020",
".  c #A2643C",
"X  c #9C6038",
"o  c #9D6038",
"O  c #A0643C",
"+  c #A86840",
"@  c #BC7848",
"#  c #B47044",
"$  c #AA6840",
"%  c #A86841",
"&  c #80502C",
"*  c #B47045",
"=  c #B47144",
"-  c #543C1C",
";  c #885830",
":  c #905C34",
">  c #744C28",
",  c #82502C",
"<  c #483818",
"1  c #A96840",
"2  c #9C6138",
"3  c #885A30",
"4  c #905C35",
"5  c #9C6238",
"6  c #6C4824",
"7  c #543D1C",
"8  c #B47244",
"9  c #80502D",
"0  c #744C29",
"q  c #D08050",
"w  c #A1643C",
"e  c #80522C",
"r  c #9C603B",
"t  c #B47046",
"y  c #553C1C",
"u  c #885930",
"i  c #9E6038",
"p  c #925C34",
"a  c #80522E",
"s  c #905C36",
"d  c #905E34",
"f  c #905D34",
"g  c #81502C",
"h  c #744E28",
"j  c #764C28",
"k  c #BE7848",
"l  c #744D28",
"z  c #6D4824",
"x  c #A86940",
"c  c #6C4825",
"v  c #915C34",
"b  c #885831",
"n  c #5D4020",
"m  c #895830",
"M  c #5C4021",
"N  c #80512C",
"B  c #A0643E",
"V  c #80502E",
"C  c #BD7848",
"Z  c #744C2A",
"A  c #5C4022",
"S  c #BC784A",
"D  c #A0643D",
"F  c #5C4120",
"G  c #6C4924",
"H  c #6E4824",
"J  c #754C28",
"K  c #925C35",
"L  c #9C603A",
"P  c #81512C",
"I  c #754D28",
"U  c #B57044",
"Y  c #885832",
"T  c #543C1D",
"R  c #5C4220",
"E  c #403018",
"W  c #493818",
"Q  c #543C1E",
"!  c #BD7849",
"~  c #BC7948",
"^  c #6C4925",
"/  c #A86A40",
"(  c #9D6238",
")  c #A0653C",
"_  c #8A5830",
"`  c #5E4020",
"'  c #9C6039",
"]  c #BC7A48",
"[  c #A0663C",
"{  c #A2643E",
"}  c #9E6039",
"|  c #483819",
" . c #774C28",
/* pixels */
"  . X o O + @ @ @ @ @ @ @ @ @ + + O X X X O @ @ # $ O O % + # &   # # # # @ # # + + + O + + # + O X X X O + + # @ * = # # + O   ",
"- X & & ; X # @ @ # + + + O : & > > > > > X + + : : ; : : X O &   + : X X X X : ; & > > ; : : , > > > > & : : X O O O X : & &   ",
"< X ; : X 1 @ @ # + 2 X : ; & > > > > > ; + @ + : : : : X X X &   O 3 4 X X : ; > > > > ; : & > > > > & ; : : X 5 X X : ; & ; > ",
"< + + + + # + + X X : : & & > > > > > > X # * O : : : : : X : 6 - X & ; : : & > > 6 > & ; ; & & > > > & : : : : X X : ; ; : X & ",
"7 @ @ 8 + + X : : & & & > > > > > > > : + @ # O X : : : : : ;   < X & ; : & > > 6 > 9 3 ; ; ; & > > 0 ; : X X : : : : ; : X + : ",
"  q # + X X : ; & > > > > > > & & & ; O # # + w X X X : : & > - < X e ; ; & > > > ; : : ; ; : ; & > & : r X X X : : : X + * + & ",
"  @ + X : : & 9 > > > > > > & ; ; : O 1 t + + O O X : : & >   y < X & ; ; & > > : X X : ; : : u & > & : X X X X : : X + # + X   ",
"  @ X : & & > > > > > > > & ; : : X + # + + O O X i ; 0 6     - < X & : ; & & ; X X X p ; : ; & a & & s : o X : X X + # + X &   ",
"  # d ; & > > > > > > > & ; p X X O # # O X X X X : > 6     6 - < X & : : : : : : : : ; & & & & & & & ; : f : X X + @ # X : &   ",
"  + ; g h > > > j > > > ; : X O + @ @ + X : p : ; & >       6 - < X : X O X : : ; & & & & & 9 & & > & : : : : X + # k + : ; &   ",
"  O & h > > > l > > > e : X + # @ @ # X : : ; & > z         6 - < O X X X : ; & > > > > & & & & > > ; : : : : O O + + X ; & &   ",
"- X > > > > > > > & ; : 5 O # @ @ # X : ; & h > 6         6 6   - x : : : & > > > > & & ; & & > > & : : : : X X X O + : & & & 6 ",
"< X > c > > > > & : : X O + # @ # X : ; & > >     -     6 > >     $ : & & > > > & ; : : : & > > > ; v X X X O X : X O X b & &   ",
"< X 6 6 > > & ; : X + # + # @ # O : & > > > 6 n - -   6 > & : &   + e & > > & & : : : : ; & > > & : X X O O O X : X O : ; & & 6 ",
"< X 6 > & : : X + # # # # # # O m & > > > >   - -     > ; X O & M O & > > & ; : X X : ; & > > & : X X O O O X : X O . : ; & & 6 ",
"< X > & : X O + t # # + # @ + : & > > > > 6   -     > N : O O > - X > > & ; : X X : & > > & ; : X O B O + O X : X + X ; & N ; 6 ",
"- O ; : : 2 + # + X o X # # O & > > > > 6         > > : X O :   < X > & ; : X X X : & > & ; X O + O O + + X : ; X O : & & ; : M ",
"  + : : : X + O : ; ; X # + f & > > > 6   -     > > ; X X : ;   < X & ; : X X X : ; & & : X + + + O X X X : & : X : & ; ; : ;   ",
"  # X : : X O X & > : + # O ; & j j 6   - -   > & : : X : & >   < X & : X X X : : : : 2 O + + + X : : ; & & ; X : & ; : : ; &   ",
"  # X : : X X ; > ; + @ + : V > > 6     -     > : X X : & > >   < O : X X X : : : X X O + + X : : & > > > ; 2 : & & : X : > >   ",
"  C X X X X X : : + @ # X & > > 6           > ; X X : & > > >   - + X X X : : : X X X O O X ; & > > Z > ; : ; e & ; X : & > > A ",
"  @ + + + # + O + # = i ; 0 > 6       M   > & : X : & > > > &     # X X s : 5 X X X X X X ; > > > > > ; : ; > > g d : ; > 6 6   ",
"  @ + S @ @ + X : X D : & > 6 6       F 6 > ; X X ; > > > & : >   + : : : X O . X : X X : & > > & ; : X ; > > > V : : >     >   ",
"  # # @ @ + : & ; X X & > 6 G H 6   c > > & s : ; > > > & ; : >   w & : X + + O X : X X : > l & X O O X & > J > & : & 6   n >   ",
"  @ @ + X & > > : X : & > > > 6 6 6 > > N ; ; e > > > & & : : > - X & X # # + X : : X X v ; ; : O : ; & > > > & ; : &     > & h ",
"  @ # : > 6 6 & : X : > > > > 6 6 6 > ; : : & > > & g ; K : :   - 2 : O # + X : : : X L O + O X ; > > 6 > > > & : ; >   6 & : & ",
"6 @ X >     > & X X ; > > > 6 6 6 > : X X : P & ; : : : : : ;   < O X 1 + X : : : X + + + O : & > > > 6 > > > & : ; > > & : X 9 ",
"6 @ & 6   > > : X X N > > J > > j ; X X : ; ; : : X X X : : &   - + O + X : ; : O + + X : ; > > > > > > > 0 > ; : : ; ; : X X 6 ",
"  O > 6 > > ; : X : e > > > > & : : : : & ; : : X i X X : & >   - # + + X X X X X X : & > > > > > > > > > > > ; X O X X X X :   ",
"- X > > & & : X X : > > > & : X O X : & > 9 : : : : : X : & >     @ # # # + X : : : & Z > > > > > l & ; ; ; & : O + X X O X ;   ",
"- X & & ; ; : X X & j & ; : X + + X ; > > & & & & : v : ; I >     @ # U + : ; & ; Y & > > > > > > & : : d : : X X O X O w X &   ",
"<           > & >     6 , & & & & >     F         6 > >   A     T X : >         6                 6 > >   R 6 & & & & & & >   < ",
"E - - - y -       -               - < < < W < < - Q   - -     - < l   - < < - - - - < < < < - - - - - - < < -       n     - < E ",
"- + + + O O + @ @ # # + + + + + O X X X X X X L X O 1 + + ! @ &   ~ @ O X O + + O X X X X O + + O X 5 X X X + # # # @ @ # O X   ",
"- + : v & & : + % 5 : ; g ; ; g & > > 6 6 > > ; : 2 O O + + O 9   @ X & ; : : ; > > > & ; : : ; > 6   Z & : X X : : X O : & >   ",
"- + : : : : O # O : : & & & & & > > 6 6 > & : X O + + O 5 O X & 6 @ X : d : : & > > & : X : ; > 6   > & : X X : : : X X : ; ;   ",
"  + f : : X + O X : ; m & & & > > > 6 > & X X : X + + X X X O & M @ X : X : ; > > > : X X ; > > 6 > & : O O X : 4 : f O X : : ^ ",
"- + & ; X X X : : : : : & & > > > & ; ; : : f ; : O + + O X X &   @ + X X : & > > ; : : ; & > > > ; X O / X : : : : X O O : :   ",
"- X > & : : ; & ; : : ; & & ; ; : O O X : ; : : O # # + X X X &   @ X : ; & > > & ; ; & j > > & d X O + B X : : : 5 O O X : ;   ",
"- X > & : ; & & ; ; ; & & : + + + + X ; ; : X + # # + X X X X &   @ X & & > > & ; & > > > > & : X O O O X X : : X X D O : ; ; 6 ",
"< X > & : ; , & & & & : X O + O O : & > 9 : O # # O X : : X X >   @ : g > & & & & > 6 > > & ; 2 O O X X X X : : : : O X : & ; 6 ",
"< X > f : ; & > & & ( + + + X X : : & > e : ) # O X : : : X : 6   @ X & & ; ; & > 6 > > & ; : X O O o X X X : ; ; : X X : & ; > ",
"< X & X : & > > & X + @ + X X X : : & > & : 5 + O X : X X X : 6   @ O : : : & > > > > & & ; : O + O X X X : ; & & s X X ; & : > ",
"< X : X : & & & X + # + X X X : : & & & ; : X B + O X X X X X &   @ O X : : & > & & & e & & : O 1 O X : : & & > & d X : & & : & ",
"< + X L : & & X + + + X d : : ; & & & d : : : O + + O X X O + : 0 @ : ; > > > & _ d ; & & & : O O X : ; & l Z > ; : : ; 9 & : & ",
"- # X X : : X + x X X : ; & e & > l ; X : : : 1 # + O . O # # : ` + > 6     > & : : & & > & : O O : ; & > > > & : X : ; & : O g ",
"  @ O X X + + + X : : & & & & & & & : X : : L # # + O X + # + > - X   - -   > ; : ; & > > & L O X d & > > > & : X : : ; : X + & ",
"  @ O + # @ + X : ; & > & & ; ; : : X X : X + # # O X X O O :   < X A - -   V ; s & & > & : X O X ; g & & & : X X : : : O O X   ",
"  @ + # @ @ + : ; & > & ; : : : X X X : X O + + X : : X o ; >   < X       > & & & & > e ; 4 O O ' : ; ; ; : : X X : : X O : &   ",
"  @ / + + + X : ; & & ; : : : X X X : : X O 2 X X : : X ; > >   < X     6 > > > > > & ; f X + + X : p : : : X X X X O O : > > F ",
"  @ + X X X X : : ; ; : : : : X X X : 5 O + X O + O X ; & & ;   - X > 6 > > > > > > & p X w % + O p : : ; : O # @ # O : > > V   ",
"6 S X : X X X X : : ; ; ; ; s O O X O + # # + O O : & & ; : : > - X > > > > > > > & : X X O + O X : ; N & X + ] @ + : & > > >   ",
"  ] : : X X X : : ; ; N & ; : + + / # @ # + : ; & & & : : X X > - o 6 > > > > > > ; : X O O O ' : ; & & : O + # t X & > > > >   ",
"  + : X X X : ; & & & ; ; : X # # # @ + X ; j > h & ; : X X :   < X 6 > > > > > & : X X O O X : : & ; L O X : X X : & h J > >   ",
"  + v : : : : ; & ; : : : X + # # # + : > > > & & ; v X X X :   < X 6 > > > & & : : 2 [ O X : : : : X O : & & ; v : : ; & > >   ",
"  + ; ; : : : : : X i O + + + + + X ; > > & & ; : : : X X : ;   < X 6 > > & : : X o O O X X : : X O O : & > > & ; : X : ; > 0 - ",
"  O & ; : X X O O + # # + ) + + X & > > & & : : : : X X X : &   < X 6 > & : X + + + [ O X X X X O O : & > > & & ; : X X : > > - ",
"- i & : { + O . O + # + X X + + : & & & ; : : : : : } X X : &   | X > & : X t # # + O O O X X O O : > > > & & ; ; ; : : ; > 6 - ",
"< X : X # + X X X + O : ; : O X : : : : : X : : : : X X : ; >   < X > ; X + # @ # + O O X : X o s > > > > & ; : ; & : : & > 6   ",
"< X : . + X X : i X : & 3 X : : X X X X X X f ; & ; : : : & >   < X & : X # # # + + O X X X X ; > > > > & ; : ; & & ; : & > > 6 ",
"- O X O L X : X X : & > ; O : : X O X X X : ; & > & : : & > > - < X N : + # * + O X X X B O : > >  .> V ; ; ; & > & : X : : : & ",
"- $ X X X X X + O : > > : + O X X X X : : ; & > & ; : ; & > >   < X & X # # # O : : X X + + ; > > > & ; : ; & > > & : X X X X & ",
"  @ X X X X O + X & > & O + X X X : : & & > > > & : : : & & &   - O : O # # O : : 4 : X + X > > > > & : : & > > & : X X X X X > ",
"  & & & & V & & >     > & & > > 6                 & & & > 6 >   - & & & & & > 6   6 > & &                       6 > & & & & >   "
};
