/* XPM */
static char *result[] = {
/* columns rows colors chars-per-pixel */
"64 64 61 1 ",
"  c #484848",
". c gray33",
"X c #989898",
"o c gray66",
"O c #B4B4B4",
"+ c #C0C0C0",
"@ c #D0D0D0",
"# c #D1D0D0",
"$ c #7C7C7C",
"% c gray55",
"& c #B4B6B4",
"* c #C2C0C0",
"= c #B5B4B4",
"- c #B4B4B5",
"; c #484948",
": c #B4B5B4",
"> c #A8A8AA",
", c #AAA8A8",
"< c #A9A8A8",
"1 c #C0C2C0",
"2 c #989899",
"3 c #9A9898",
"4 c #A8A8A9",
"5 c #999898",
"6 c #98989A",
"7 c #8C8C8D",
"8 c #989A98",
"9 c #989998",
"0 c #646464",
"q c #484A48",
"w c #666464",
"e c #646564",
"r c gray22",
"t c #2C2C2C",
"y c #2C2C2E",
"u c #494848",
"i c #545455",
"p c #555454",
"a c #D0D1D0",
"s c #D0D0D2",
"d c #B4B4B6",
"f c #A8AAA8",
"g c #48484A",
"h c #8C8E8C",
"j c #2C2E2C",
"k c #484849",
"l c #C0C1C0",
"z c #B6B4B4",
"x c #565454",
"c c #7D7C7C",
"v c #C0C0C1",
"b c #7C7D7C",
"n c #8C8C8E",
"m c #4A4848",
"M c #646465",
"N c #646664",
"B c #2E2C2C",
"V c #545554",
"C c #A8A9A8",
"Z c #C0C0C2",
"A c #8C8D8C",
/* pixels */
" . XoO+@@@@@@@@#@@@@@@@@@@@@+OoX . XoO+@@@@@@@@@@@@@@@@@@@@@+OoX",
" . $++++++++++++OOOO+O+O+O+O+O+% . $++++++++++++OOOO+O+O+O+O+&+%",
" . $++O*++OO+OOOOOOOO+O+O+OOO+O% . $++O+++OO+OOOO=OO-+O+O+OOO+O%",
" . $OO+OO++OOOoOOOOO+O+O+OOOOoO% . $OO+OO++OOOoOOOOO+O+O+OOOOoO%",
";. $O+OOOO+:OoOo+OO+OOO+O+O+oOo% . $O+OOOO+OOoOo+O:+OOO+O+O+oOo%",
" . $O+OOOO+OOoOo+OO+OOO+O+O+oO>% . $O+OOOO+OOoOo+OO+OOO+O+O+oOo%",
" . $OO+OOOOO,O<+O+OoOOOOoO+oOoo% . $OO+OOOOOoOo+O+OoOOOOoO+oOoo%",
" . $OOO+OOOoOoOo1o+ooOoOooooooO% . $OOO+OOOoOoOo+o+ooOoOooooooO%",
" . $=OoOoooooOoOoooooo:o+ooOOoo% . $OOoOoooooOoOooooooOo+ooOOoo%",
" . $oXOXooooXoOoo2oOoOXooo3ooX4% . $oXOXooooXoOooX4OoOXoooXooXo%",
" . $o%XoX%oXoXoXXoXXoXoooXo%XoX% . $o%XoX%<XoXoX5oXXoXoooXo%Xo6%",
" . $%%%X%X%o%oX%oX%X%X%X7o%X%oX% . $%%%X%X%o%oX%o8%X%X%X%o%X%oX%",
" . $X%X%XXX%X%%o2XX%X%X%9%X%X%%% . $X%X%XXX%X%%oX2X%X%X%X%X%X%%%",
" . 00000000000000000000000000000q. 000000000000w00000000000e0000",
"  rttttttttttttyttttttttttttttttr rttttttttttttttttttttttttttttr",
"       u                                                        ",
".............i.............................................p....",
"@@@@@@@@a@@+OoX . XoO+@@@@@@@@@@@@@@@@@@@@@+OoX .;XoO+s@@@@@@@@@",
"OOO+O+O1O+O+O+% . $++++++++++++OOOO+O+O+O1O+O+% . $++++++++++OOO",
"OOOO+O+O+OOO+O% . $++O+++O:+OOOOOOOO+O+O+OOO1O% . $++O+++OOOO-OO",
"OOO+O+O+OOOOoO% . $O=+OO++OOOoOOOOO+O+O+OOOOoO% . $OO+OO++OoOOOO",
"+OoOOOOoO+oOoo% . $OO+OOOOOoOo+O*OoOOOOoO+4Ooo% . $OO+OOOOOo+O++",
"o+oo:oOooooooO%u. $OOO+OOOoOoOo+o+ooOoO4oooo<O% . $OOO+OOOoOo+oo",
"OO+OOO+O+O+oOo% . $O*OOOO+OOoOo+OO+OOO+O+O+oOo% . $O+OOdO+OOo+OO",
"+OoOOOOoO+oOoo% . $OO+OOOOOoOo+O+OoOOOOoO+oOoo% . $OO+OOOOOo+O++",
"o+ooOoOooooooO% . $OOO+OOOoOoOo+o+ooOoOoo4oooO% . $OOO+OOOoOo+oo",
"oooooOo+ooO-oo% . $OOoOoooooOoOooooo4Of+ooOOoo% .g$OOoOoooooOooo",
"XoOoOXoooXooXo% . $oXOXooooXoOooXoOoOXoooXooXo% . $oXOXooooOooXX",
"oXXoXoooXo%XoX% . $o%XoX%oXoXoXXoXXoXoooXo%XoX% . $o%XoX%oXoXXoo",
"X%X%X7X%o%X%oX% p $%%%X%X%o%oX%oXhX%X%X%o%X%oX% . $%%%X%X%oX%oXX",
"XX%X%X%X%X%X%%% . $X%X%XXX%X%%oXX8%X%X%X%X%X%%% . $X%X%X6X%%oXXX",
"000000000000000 . 00000000000000000000000000000 . 00000000000000",
"tttttttttttttttttttttttttttttttttttttttttttttttttttttttttttjtttt",
"           k                                                    ",
"................................ . .............................",
" . Xo=+@@@#@@@@@@@a@@@@@@@@@+OoX . XoO+@@@@@@@@@@@@@@@@@@@@@+OoX",
" . $++++++++++++OOOO+O+O+=+O+O+% . $l+++++++++++OOOO+O+O+d+O+O+%",
" . $++O+++OO+OzOOOOOO+O+O+OOO+O% x $++O+++OO+OOOOOOOO+O+O+OOO+O%",
" . $OO+OO++OOOoOOOOO+O+O+OOOOoO% . cOO+OO++OOOoOOOOO+O+O+OOOOoO%",
" . $O+OOOO+OOoOo+OO+OOO+O+O+oOo% . $O+OOOO+OOoOo+OO+OOO+OvO+oOo%",
" . $OO+OOOOOoOo+O+OoOOOOoO+oOoo% . bOO+OOOOOoOo+O+OoOOOOoO+oOoo%",
" . $OOO+OOOoOoOo+o+ooOoOooooooO% . $OOO+OOOoOoOo+o+o<OoOooooooO%",
" . $OOo:oooooOoOooooooOo+ooOOoo% . $OOoOoooooOoOooooooOo+oodOoo%",
" . $oXOXooooXoOooXoOoOXoooXofXo% . $oXOXooooXoOooXoOoOXoooXooXo%",
" . $o%XoX%o3oXoXXoXXoXoooXo%XoXn . $o%XfX%>XoXoXXoXXoXoo,Xo%XoX%",
" . $%%%X%X%o%,X%oX%3%X%X%o%X%oX%m. $%%%X%X%o%oX%oX%X%X%X%o%X%oX%",
" .g$X%X%5XX%6%%oXXX%3%X%X%6%X%%% . $X%X%XXX%X%%oXXX%X%X%X%X%X%%%",
" . 000000000000000w0M00000000000 . 000000N0000000000000000000000",
" . rttttttttttBtttttBttttttttttrr rrtttttttttttttttttttttttttttr",
"                  ;                                             ",
"........................V.......................................",
"@@@@@@@@@@@+OoX . XoO+@@@@@@@@@@@@@@@@@@@@@+OoX . XoO+@@@@@@@#@@",
"OOO+O+O+O+O+O+% . $++++++++++++OOOO+O+O+O+O+O+% . $++++++++++OOO",
"OOOO+O+O+OOO+-% . $++O+++OO+OOOOOOOO+O+d+OOO+O% . $++O+++OOOOOOO",
"OOO+O+O+OOOOoO% . $OO+OO++OOOoOOOOO+O+O+OOOOoO% . $OO+OO++O>OOOO",
"OO+OOO+O+O+oOo% . $O+OOOO+OOoOo+OO+OOO+O+O+oOo% . $O+OOOO+OOo+OO",
"+OoOOOOoO+fOoo% . $OO+OOOOOoOo+O+OoOOOOoO+oOoo% . $OO+OOOOOo+O++",
"o+ooOoOooooooO% . $OOO+OO:oOoOo+o+ooOoOooooooO% . $OOO+OO=oOo+Co",
"oooooOo+ooOOoo% . $OOoOoooooOoOooooofOoZooOOoo% . $OOoOoooooOooo",
"6oOoOXoooXooXo% . $oXOXooooXoOoo8oO,OXoooXooXo% . $o5OXooooOooXX",
">XXoXoooXo%XoX%k. $o%XoX%oXoXoXXo9X<XoooXo%XoX% . $o%XoX%oXoXXoo",
"X%X%X%X%o%X%oX% . $%%%X%X%o%oX%oX%X%2%X%o%X%oX% . $%%AX%X%oX%oXX",
"XX%X%X%X%8%X%%% . $X%X%XXX%X%%oXXX%X%X%X%X%X%%% . $X%X%XXX%%oXXX",
"000000000000000 . 000000000N000000000000M000000 . 0000000N000000"
};
