/* XPM */
static char *result[] = {
/* columns rows colors chars-per-pixel */
"64 64 104 2 ",
"   c #543C1C",
".  c #F0945C",
"X  c #BC7848",
"o  c #DC8854",
"O  c #DC8856",
"+  c #B47044",
"@  c #FCA470",
"#  c #5C4020",
"$  c #6C4824",
"%  c #744C28",
"&  c #80502C",
"*  c #885830",
"=  c #905C34",
"-  c #9C6038",
";  c #A0643C",
":  c #A86840",
">  c #D08050",
",  c #C87C4C",
"<  c #A86940",
"1  c #B47046",
"2  c #B47144",
"3  c #744D28",
"4  c #C97C4C",
"5  c #CA7C4C",
"6  c #BC784A",
"7  c #A86842",
"8  c #D08051",
"9  c #E88C58",
"0  c #80502D",
"q  c #9D6038",
"w  c #BC7A48",
"e  c #5C4022",
"r  c #82502C",
"t  c #885832",
"y  c #BE7848",
"u  c #DD8854",
"i  c #A0643E",
"p  c #D28050",
"a  c #905E34",
"s  c #B47244",
"d  c #905D34",
"f  c #A86841",
"g  c #80522C",
"h  c #9C603A",
"j  c #925C34",
"k  c #A86A40",
"l  c #DE8854",
"z  c #885A30",
"x  c #C87C4D",
"c  c #9E6038",
"v  c #80512C",
"b  c #80502E",
"n  c #F0965C",
"m  c #AA6840",
"M  c #BC7948",
"N  c #81502C",
"B  c #A0643D",
"V  c #8A5830",
"C  c #6C4924",
"Z  c #905C35",
"A  c #915C34",
"S  c #764C28",
"D  c #B67044",
"F  c #9C6238",
"G  c #A1643C",
"H  c #B57044",
"J  c #885930",
"K  c #744E28",
"L  c #9C6039",
"P  c #A96840",
"I  c #DC8855",
"U  c #6C4825",
"Y  c #885831",
"T  c #B47045",
"R  c #483818",
"E  c #FCA471",
"W  c #C87D4C",
"Q  c #9C6138",
"!  c #905C36",
"~  c #5E4020",
"^  c #403018",
"/  c #6E4824",
"(  c #382C14",
")  c #483819",
"_  c #DC8954",
"`  c #F2945C",
"'  c #E98C58",
"]  c #DC8A54",
"[  c #543C1E",
"{  c #895830",
"}  c #5C4120",
"|  c #D08052",
" . c #D18050",
".. c #C87E4C",
"X. c #A2643C",
"o. c #E88C5A",
"O. c #5C4220",
"+. c #744C2A",
"@. c #6D4824",
"#. c #82512C",
"$. c #D08250",
"%. c #543E1C",
"&. c #744C29",
"*. c #A0663D",
/* pixels */
"  . X X X X X X X o o . . . . . . . o o o . . o O o o o . . . X + @ o o o o o o o o o o o o o o X X X X X X X o o o o o X X X + ",
"# X $ % % % & & & * = - - - - - - = ; : X o o > , o > , X + : %   > : < : : : : : + + + + + + : ; ; - - ; : 1 2 : ; = * & & & # ",
"# X % 3 % & & & & & & & & & & & % & * : X o o X X > o 4 X : ; %   > : : + + + X , , > o > > > 5 X X X X 6 > , + ; = * * * * * # ",
"# X % % % % & & & % % % % % % % & * - : + + 7 - ; + X , 6 + : % # o , , > o 8 > o o o 9 o o o o o 9 o > > > X ; - - - - - - = # ",
"# X & & & % % % & & % % 0 & 0 * q + X + : - = = - : + w , , X * # . o o o 9 o o o o o o o o o > o 9 > X + + ; - - ; : : ; - = e ",
"  X & & & & & & & & & r t = ; : y > > + ; - - ; : : : + X > > = $ . o o o o o o o u > , X X X + X , X + i - - = - ; : ; - = = # ",
"  X & & & & & & * * * - : + + + + X + ; - - ; : : : + + + X , = $ . o o > , X > p , + + : : : : : + X + ; = = = - - - = a = = $ ",
"  X & & & & & & * = - s X X + : ; - - = d - ; : : : + + + + + * # . > , + + : > , + : : < : f : : + X + ; = * a = = = * * * * $ ",
"  X % % % & & g * - : + + : ; h = * * * j - - : k : : + + 2 + & # . , + : : : , + : : : 7 : : ; - ; + + : = * = = * & & & & * $ ",
"  X % % % % % & = : + : - = = * * * * * = - - ; : : : : : + + & $ l + : : : : , + : : : : : ; - = - : + + - = * * & 0 & % & & $ ",
"# X % % % & & = ; : : = * & * z * * * = = h ; ; : : : : : + + & # o + + + > o x + : : : : ; - = d = c + + : - * & & v % % & & # ",
"# X & & = - ; : : ; = * & & & & * * = = - ; ; ; : : : 7 : + + & # o X X > 9 . , + : : ; - = = = = = j ; + + : - * r & & b & * # ",
"# X * - : + X 6 : = & & & & b & * a = - ; ; : : : : : : : : : & # o , o n . 9 X : : ; = * * & * * * = - ; : : : : - * * * * * # ",
"$ o : : : m M X m & & & N r & & * = - - ; ; : m : : : : : + + * $ o > > 9 9 , + : B = V & & & & & * = = - : + , X : - - - - = $ ",
"C . : - * = : + - & % & & * * * * = = - - - ; : : : + + X X , = # o X X X + : ; - = * & & & & & * * * = - : X > X : ; - - - - $ ",
"$ o = & & = : : * % % % & * * * * z = - Z - - : : + X , , X X * # o + + + ; - = A * * & & & 0 * * & * q : + X + : ; - = = - ; % ",
"# X % % & - + - & $ % S & * * = = - - = = - ; : + X X X + : : % # o + D ; = * * * * * & * * * * * = - : + + : - = = = * * = F $ ",
"# X $ % & ; + - % $ % & * = - : + + : G ; : + + + + : - - - : & # o + : - * * * * * * * = = - ; : : + + + : - * * = = = = = - $ ",
"# X $ % * : + A % $ % * ; + H X X X + + 1 + + : - = = = d ; + * # o 7 ; = * * * J * - ; : : : H X 6 X + ; = * * = - - - = = - K ",
"# M $ & - X + = % % * ; + X + + : : : + + : = * & & * - : + X &   > ; - = = = = = - : + + + + + X + : - * * * t = - - - = - + N ",
"  X $ & ; X : * & * ; + + : ; = * * = - = * & & & * ; + X X + %   > - - - ; : : : : : : ; : : : : - = * * * * = a - - - - : , * ",
"  X $ & ; + ; * * ; + : - * & & % % & & & & & & = i + + + + : $   > ; : + + + + + : - * * = L - - = = * = = = - - - - ; + , > & ",
"  X % * : + ; - ; + : - & % % # $ K % b & & * c : + + + : ; - $   > + X X + : P ; = * & * = - - - = = = - ; ; ; - q ; X I o X $ ",
"  X & ; + : : : + : - & % U # # $ & & * = - : + + + : : ; ; - $   o + + : ; A * * * & * * = = a - - - ; : : : : - - + > o X ; # ",
"# X ; + X + + + : - & % $ # # $ & - ; : : + + X + : : : : : : % # o : L * * J * Y * * * = = = - - ; : : : : : : - - + > X - & # ",
"# o + X X X + : - * & % $ $ % & - + s + + + + m : ; : : + X X * # > - & & & * * * & * * = = - - ; : : : : : k : - ; + X ; * t $ ",
"# . + + X + : - * g & % S & * ; + : : : : : : : 7 : T + X , , &   X & & & * * z & & & * = - ; : : : : : : : : ; - : + + ; - : & ",
"$ . + + + : = * & & & & * - : + : L = - : + X X X M X X + + : $ R X & & & * & & & & & * = ; : : : : : : k : : - - + , , + T + & ",
"$ E + + ; = & & & * * - : + X + : - - : + W > > 6 + + : - = * # R + & & * * & & & & * j - ; : : : : : : : : : : : X > > X + : $ ",
"& @ + : = & & * * = - : X X X + : : + + + + + + : ; - = * & * # R X & Y = J & * * = - - : : : : k : : : : + + + + X X + : - = # ",
"& @ : = * & & = - ; : + , X + + + + + : - Q - - = = = = * = = $   X = = = = = - ; 7 : : : : : : : : : + + X , X + : - = ! * V # ",
"# X $ # # # # $ $ % % * * * * & & % $ $ # # # ~ # # $ $ $ $ $   ^ + $ $ $ / % % % & & & % % % % % & * * = a = & % $ $ # # # # R ",
"# +   R R R R         # # # # # #       R R R R R R           ^ ( :               # # #           # # # $ $ $ #       R ) R R ( ",
"% . X X X X X X X > _ o . . ` o > X X X X X X X X X X X > > X * # o X X > > > o o O o o > > > o o o o . . . o > > > X X X X X * ",
"# X & & & & & g & * + 9 . o , : * b & & * * * * * * = - - = = $   X = - ; : : + + + + : : : X X > I o o ' o + : : ; - = * & r # ",
"# X & & & & v & & = + o ] X : = & & * * * * = = = - - - = J * $ [ > - - : : : : : : : : : + > o o o o o o o + + : : ; - Z * * $ ",
"# X % & & & & * - : + + + - = * * * * * * * = - - ; c = * * = $   > - ; ; ; ; - - q - f + , > o o o o > , X + + + + + X + : : % ",
"# X % & & * - : + + k ; F = = = = = * * * * = - ; ; - = * = - $   > - - = = = = = = ; + X , X X > > , + + : + s s , > > > , X & ",
"# X & * - : + T + : - - - ; - - = = * * * = - - - = * * = - - $   X = = * * * * * - + X X + + X > , + : : : + + , > , X X + + % ",
"# X * ; + + + : ; - q - ; : ; - = = = = - - - = * { * * A = = $ R X * & & & & & = : X + + : : > , + : : : : + , , X + : ; - = } ",
"# X ; + + : - - = - - - - - - = * * * = - - - = = * = - h = = # R X & & & & & * ; X X + : : + X , , , , , , , , X + : - = * &   ",
"# o : : - * * = = - - = = = * * & & & & * - ; : : : + + + : - $ R X * * & & = ; X , X : : + X > > > | o o  ., y + : - = * & %   ",
"$ . ; = & & * = = ! = * * * & & & r & & = : + + + 6 , , X + + %   > : : : : + X > > + : + X > , X + + X X X + + : : - = * & &   ",
"$ o * & & * = = = = * * * & & & & & * - : : : : : : + + : : + & # o + + , > , , > > .., > o > X + : : : : + + + + + : : : ; - $ ",
"# X r & * = - = = = * * = = * * = - : : m X.= * * * * * * = - $   > 7 + X , X X X X o 9 o.o , X X X X + + X X , X + + + + + + % ",
"O.X & * = - c - = A = - : : : : : : : ; = * & & % % % % % & & # R X - : + : - - : + , o > X X , , , , X X + : : : : ; - - - = $ ",
"# X z = - ; ; - - ; m + + + + + + : = * & % % % % $ $ $ $ % %   R X - : ; = * * - : X X : ; : + + + + : ; - - = = * * * & & & # ",
"# X = ; : : B ; : + X + + : ; ; - z & % +.$ % $ # # # # # $ %   R > : : - - - : + , X : = * * = - - = = - ; ; : ; ; - - = = = $ ",
"# X ; : : : : + + X + : = z & & & K % @.$ $ $ # # # # # # % & #   o + + : + + X > , + = & g & & * * = ; : + + + + + : : : : + % ",
"# o : : + + X , X + ; = & & % % $ U $ $ # # # # # $ v & #.* - & $ o X + + + : s + + ; = & & & * * - : + + : ; ; - - = = = - : $ ",
"$ o : H X , > , + : - * & & % % $ $ # # # } # # $ * : + + X , = $ o + P ; - - ; : + + + : ; - : + + + : Q d * & & % % % % % & # ",
"$ o + , > > , + : : - j * & % $ # # # # # # $ % * T o @ @ . o * # $.- - - ; : k X o o > X + + X o o 1 - * & & & & % $ # # # %   ",
"$ . , > , X + + : : - = * & % $ # # # # $ * - : + , 9 @ @ 9 X % %.> ; : + + + X > 9 O X + ; - + > o + ; = * & & & & &.% % % % # ",
"$ . , X + + + + : : ; = * & % $ # # # % & : > o , X , $., , X &   o + X X + + + X X : - * & & * ; + + + : ; = * & & & & & & & # ",
"$ . + + : + + + : : - = * & N % % * * = : X o o , X + + X X , = $ o X + : : : : + ; * & & r & & * - : + + + ; = = = = = * * * # ",
"$ o : G : : : : : ; - = = = - - - ; : : + + + + : : : : < : + & # o : - = - : : ; * & & & & & & & & * = - : : : : : : : i - - $ ",
"# X = A - - - - ; ; ; ; : : + : ; - = - - = = * = = = = j - - $   X * * = ; : ; { & % % r & r & & & & & & * ; + + + H + + : ; $ ",
"# X * * * = = - ; : + X X + : Z * & & & & & & * = = = = = * * # R X & * - : = & % % % % & & & & & & % % % & * - ; : : : + + k $ ",
"# X * * = - *.: + + + X X : * & & & & & & * * = = c = = * * & # R X & - - * % # # $ % % % & & & & & & % % & & & * * * = : + + % ",
"# X - : : : + + + : ; < ; = & & g * * * * * = = = = = * & & & # R X - F * % # # $ $ % % % % & & & & & & & & & & & & & & * - : & ",
"# o : : : ; - = * & & & * * * * * = = = = * * * * & & & * & & #   > ; = & % % % % % +.% % % & & & & & & & & & & & & & & & & * $ ",
"$ o = * & & % % % $ % & & * = - - - - = = = * * * & & = - ; ; %   > - & & & & & & & % % % % % & & & & & g & & & & % % % % % % # ",
"$ o = * & & % % % $ % & & * d - - - - = = = * * * & & = - ; ; %   > - & & & & & & N % % % % % & & & & & & & & b & % % % % % % # ",
"# X #           # # $ % & = ; : : : : : < : : ; ; - ; : : + + %   w & & % & & & & & % % % $ % % % % % % % % % % % % % % % $ # R "
};
