/* XPM */
static char *result[] = {
/* columns rows colors chars-per-pixel */
"64 64 107 2 ",
"   c #5C4020",
".  c #D08050",
"X  c #BC7848",
"o  c #DC8854",
"O  c #FCA470",
"+  c #F0945C",
"@  c #905C34",
"#  c #6C4824",
"$  c #D08150",
"%  c #543C1C",
"&  c #A0643C",
"*  c #A86840",
"=  c #9C6038",
"-  c #885830",
";  c #80502C",
":  c #B47044",
">  c #C87C4C",
",  c #C87D4C",
"<  c #483818",
"1  c #BC7948",
"2  c #9C603A",
"3  c #F0955C",
"4  c #744C28",
"5  c #E88C58",
"6  c #C97C4C",
"7  c #FCB080",
"8  c #B47244",
"9  c #D08051",
"0  c #403018",
"q  c #C87E4C",
"w  c #A96840",
"e  c #DD8854",
"r  c #A0643E",
"t  c #B67044",
"y  c #A86841",
"u  c #FDA470",
"i  c #A0663C",
"p  c #80502E",
"a  c #B47045",
"s  c #885930",
"d  c #FC9C60",
"f  c #B47144",
"g  c #A0653C",
"h  c #D08052",
"j  c #754C28",
"k  c #925C34",
"l  c #81502C",
"z  c #9D6038",
"x  c #CA7C4C",
"c  c #F0945D",
"v  c #885A30",
"b  c #B57044",
"n  c #A86A40",
"m  c #553C1C",
"M  c #A86842",
"N  c #9C6039",
"B  c #905C35",
"V  c #AA6840",
"C  c #F1945C",
"Z  c #744D28",
"A  c #6C4924",
"S  c #5E4020",
"D  c #FCA472",
"F  c #6E4824",
"G  c #80512C",
"H  c #BC7A48",
"J  c #82502C",
"K  c #905D36",
"L  c #905E34",
"P  c #DC8A54",
"I  c #C87C4D",
"U  c #BC7849",
"Y  c #D08250",
"T  c #895830",
"R  c #A86940",
"E  c #C87C4E",
"W  c #B47046",
"Q  c #D18050",
"!  c #6C4825",
"~  c #5D4020",
"^  c #744C2A",
"/  c #6C4A24",
"(  c #382C14",
")  c #543E1C",
"_  c #493818",
"`  c #5C4021",
"'  c #563C1C",
"]  c #FCA471",
"[  c #BE7948",
"{  c #A0643D",
"}  c #80522C",
"|  c #DC8855",
" . c #BC784A",
".. c #9E6038",
"X. c #744E28",
"o. c #A2643C",
"O. c #915C34",
"+. c #DE8854",
"@. c #8A5830",
"#. c #9C6238",
"$. c #C97D4C",
"%. c #905D34",
"&. c #DC8856",
"*. c #F2975C",
"=. c #D28050",
"-. c #A1643C",
";. c #5C4220",
/* pixels */
"  . X X . o O O O O O O O O O o o . X X X . O O + o . . o o + @ # + + + + O + + o o o . o o + o $ X X X . o o + O + + + + o .   ",
"% X @ @ & X + O O + o o o . * = - - ; ; - X o o : * & * : > . @ # o : > , > > : & @ - - & : * @ ; ; ; - = * : > . . . > : = @ # ",
"< 1 & : X o O O + o > > : & @ - ; ; ; ; & o O o : * * : X > > @   . & : > > : & - ; ; - & * = - ; ; ; @ & * : > > > > : & = & ; ",
"< o o o o + o o > X : * 2 @ - ; ; ; ; - X 3 + . : * * : : > : 4 % X @ & : * = - ; 4 ; @ & & = @ ; ; ; = * : : : X X : & & * > = ",
"% O O + o o > : * = @ @ - ; ; - - ; - : o O 5 . X : : : : : &   < X @ & * = - ; 4 ; @ & & & & = - ; - & : > > : : : * & : 6 o * ",
"# 7 + o > 6 8 & @ - - - ; ; - @ @ @ & $ + + o 9 > > > : * = ; % 0 X = & & @ ; ; ; & : : & & * & @ - @ * > q > > : : : X o + o @ ",
"# O o > : w = @ - - ; ; ; - @ & & * . e 5 o o . . > : * @ ; # % 0 X = r & @ ; - * > > t & y * & @ - = * > > > > : : > o + o X # ",
"# O > : = @ - - - ; ; ; - @ & : * X o + o o . . > > & - 4 # # % < X = * & = @ & X > X * & * & = @ @ = * : > > : X > o + o X = # ",
"# + : & @ - - - ; ; ; ; @ & : > > . + + . > > > X * - 4 # # 4 % < X = : : : : : : : * & = = = = @ @ @ & : : : > > o u + > * @ # ",
"# o & @ - - - - ; ; ; - & : > . o O O o > : : * & @ ; # # # 4 % < X * > . > : * i = @ @ @ @ @ @ @ - @ * : * : > o + O o : & @ # ",
"  . @ - ; p ; ; ; ; - = a > o + u O + > : * & @ ; 4 # # # # 4 % < . X > > : & @ - ; s - @ @ @ @ - - & : : * : . . o o X & = @ # ",
"% X ; ; ; ; ; ; ; @ & : > . 5 d O + > f & = - ; 4 #   # # 4 4   % o : : * @ - ; ; - @ = g = @ - - @ * : : : > > > . e : = = = 4 ",
"< X ; 4 ; ; ; - @ * : > . o + d + > : & @ - ; #   %   # 4 ; - #   o * = @ - ; - @ & * : * = - ; - & : > > > . > * X h X & = = # ",
"< X 4 j ; - = & : > o 5 o 5 O + . * k - - l 4   % % # 4 ; = : @   o = @ - - @ z * : : : & @ - - = : > > . . . > * X . : & = = 4 ",
"< X 4 ; @ * : x o + + + 5 + + . & @ - ; ; ; # % %   # ; & > . @   . @ - - @ & 8 > > : & @ - - = : > > . . . > : X . . * & = = 4 ",
"< X - = * > . o + + 5 o c O o * @ - ; ; ; 4 # %   # ; @ : . . v % X - - @ & : > > : = - - @ & : > h . . o h X * X o X & = = & 4 ",
"% . & * : > o 5 o > > > + + . = - - ; ; 4 #     # ; - * > . : # < X - @ & b > > > * @ - @ & > . o . . o o > * & X . n = = & * # ",
"  o : : : > o . : & r > + o : @ - ; ; 4 # m   # ; - & X > : &   < X @ & : > > > : & @ = M > o o o 9 > > > * = : X : N & & * & # ",
"  + > : : > . > = - * o + . & B - ; 4 # % % # ; @ * : > : = ;   < X = : > > > : : * : X . o o o , : * & = @ & X * = & : : & @   ",
"  + > : : > > & - & o O o : = - ; 4 #   %   # - : > > : = ; ;   < . V > > > : : : > > . o o > : * = - ; l & X * @ = : > * - ;   ",
"# O > > > > X : : o O C X = - ; Z #       # ; & > > : = ; ; ;   % o > , > : : : > > > . . X & @ - ; ; ; & : & @ @ & X : @ ; ;   ",
"# O o o o + o . o + + > & - ; 4 # # # A # ; @ : > b = - ; - @ #   + > > : : X > > > > > > & - ; ; ; ; & : & - - @ * : & ; 4 4 S ",
"# D o d O O o X : > . : @ ; 4 4 # F # # 4 - & > > & - ; - @ * ; # o * * : > . . > : X > : @ ; ; @ & : X & ; G - @ * * - # # ;   ",
"  + + O O o : B & > > = ; 4 4 4 4 # 4 ; ; @ M : & - ; - @ & : -   . = * > o o $ X : > > * - ; @ X . . X @ ; ; - = * = 4   # ; # ",
"  O O o H @ ; - * > : @ ; ; J 4 4 4 ; - = & & = - ; - K = * : ; % X = X 5 + o > : : q X * & & : . : & @ ; ; ; @ & * @ # # ; = ; ",
"# D + : ; 4 4 @ : > * - ; ; p 4 4 4 - & : * = - - @ = & * : : # % X * . + o > : * t > > . o . X & - ; 4 ; ; - = * & l # 4 @ : @ ",
"4 O X - # # ; = > > i - ; ; j 4 4 ; * > > * = L & * * : : * & # < . X o P I * * : > o o o . : = - ; ; 4 ; ; - = : & ; ; @ : > B ",
"4 O @ 4 # ; - * > X = - ; ; ; ; - & X > f & & : : > > > : * @   % o . o > * & : . o o X : & - ; ; ; ; ; ; ; - & : : & & : > > 4 ",
"  . ; 4 ; - & : I : @ ; ; ; - = * : : * = & : : > > > > : = - # % + o o > X X U X X : = - ; ; ; ; ; ; ; - - - & > . > > > > *   ",
"% X ; ; @ = * > > * - ; - @ * > Y > * @ T = * : * R : > * @ - #   D 5 + + o X : * * = - ; ; ; ; ; ; @ & & & = : . o > > . > &   ",
"% X B = & & : > > = - @ & a > o o E & - ; @ = = = * : : r - - # # O + + o : & = & & @ - ; ; ; ; ; @ * : W : : X > . > Q . 6 =   ",
"0 # # # ! # ; @ ; # # 4 @ @ @ @ @ ; #         ~ # ^ - ; #   # / % X n - #     # 4 #             # 4 ; ; # # 4 @ @ @ @ = @ l # < ",
"( % ) % % %   #   %   # #         % < < < < _ < % %   % % ` # % < ; # % < < % % % ' < < < < % % % % % % < < % # # # # # # % < ( ",
"% o o o . . o ] O + + P o o o o . X X X X X X X X . o o o O O @ # O O . X . o o . X X X X . o o . X X X X X P + + + O O + . [   ",
"% o : : = = a o o > : & = & & = @ ; ; 4 4 ; - & : X . . o o . @ # O 1 = & * : & - ; ; @ { : : & ; 4 # l @ : > > : : > . : @ - F ",
"% o : : * : . 5 . : * = = = = @ - p 4 4 ; k : X . o o . X . > @ 4 O X V : : * @ ; ; @ f > : & - 4 # ; @ : > > : * * > > b & & # ",
"  e : * : > o . > * & & 2 = @ - } ; 4 ; @ X X : X o o > X > . @ # O > : > : & - ; - * > > & - ; 4 ; = : . . > : * * : . > : * 4 ",
"% | = & X > > : * * * * = @ - ; - @ & & : : * & : . o o . > > @ # O o > X V @ - - & : : & @ ; ; - & X . o > : * * : > . . : * / ",
"%  .- = : : i = & * * & @ B & & : . . X : & * : . 5 + o > > > @ # u > : & 2 - - = & & @ - ; ; @ * > . o . > : * : > . . > * & # ",
"% X ; @ * & @ @ & { & = = : o o o o X & & * x o 5 + o > E > > @ # O X = @ - - = { = - ; ; - @ * > . . . > X : : X > . . : & & 4 ",
"< X ; = : & @ @ = = ..* X . o . . : = - = : . + 5 . X : : > > ; # O : B - @ = = @ ; 4 ; ; @ & X . . > > > E : : : : . > : = { 4 ",
"< X - : : & @ - @ = X o o o > > : * 2 - @ : $ 5 . > : f : > : X.  O X = = & o.@ ; 4 ; ; @ & : > . . > > > > : & & : > , * = & ; ",
"< X = X : = - - = X o O o > > > : * N - @ * > o . > : > > > : 4 # O . : : : = ; ; ; - @ = & : . o . > > > : & @ @ * > X & = * - ",
"< X * > : = @ = X o + o > > > : * = @ @ & * > . o . > > > > > @ # O . > : * @ - @ = = = @ = : . o . > : * = @ - O.: > : = @ * @ ",
"< o > > : = = 1 o o o > : : w & @ @ = * : * f . +.o . > > . o * ; O : & @.; ; @ & M & @ @ = : . . > : & @ - ; - & : : & @ = f = ",
"% + > > : : X o o > > : & = ..O.- - & > : * : o 5 o . . . 5 + * # o - 4 # # ; = * * = @ - = : . . : i @ - ; - = : > : & = * . = ",
"# O . > > o o o > : * = @ @ @ @ @ = : > : : x 5 5 o . > o + o - % X # % % # ; & * & @ - - = X . > * = - - - @ * > : * & * X o @ ",
"A O . o + O P > * & @ - @ = & & * : > > : > o + 5 . > X . . :   < X   % % # @ & * = @ - @ * > h x & = @ @ = * > > : * : . . X # ",
"F O o C O O o : & @ - @ & * : : > > > : > . o o > : * X X & ;   < X #   # ; @ #.= @ - @ { : . . > * & & & * : > X * : > . : @ # ",
"# O o o o o > : o.@ = & M : : > > > : : > . > X X : : X & - -   < X # # 4 ; - - - - @ & : > o o > f : * * * X > > > . . * - - # ",
"# O o > > > > : * & & * * * : I > > : > . o > . o . X & @ = & F % X ; 4 ; ; - ; ; - = : > . o o . : * * & * . + O + . : - ; @ # ",
"4 O > : > > > > : * & & & & : . . > . o + + o . . : = = & : : ; % X ; ; ; ; ; ; ; @ * > > . o . I : & = = X o O O o : @ ; - - # ",
"# O : : > > > : * & & = = & : o o o + O + o : & = @ @ * : > I ; % X 4 ; ; ; ; ; - & : E . . . > : & N = : . o + 5 > = ; ; - -   ",
"# o : > > > : { = z = & & * $.5 5 + O o X & - ; - = & : > > : # < X 4 ; ; ; ; - = * > > . . > : * = & X . X : X > : = - - - -   ",
"  o W : : : * & = & * b : > o + + + o : - - - @ = & * > > > * # < H 4 ; ; - @ = * : E . . > : * * * X . : @ %.& : : : & @ - ;   ",
"  o r & * : : : : X > . o o o o o X & - ; @ = & * * : > > : &   < X j ; - = * : > > . . > > : : X . . W @ ; - = & : > : & - ; % ",
"  . = & : > > . . o 5 + &.. o o X = - - @ = * * : a > > > * =   < X 4 ; = : > o o o . Y > > > X . . : @ ; - @ = & * X > * - ; % ",
"% X N : . +.. . . o + o X X o o : = = = & : : : : : > > > * @   < X ; @ * > 5 *.+ o . . =.> X . . 8 - ; ; @ = & g & : : & ; 4 % ",
"< X * E 5 o > x > o . : & : . X : : * * : , : 8 * * > > : & -   < X - & X o + d + o . . > : X X * - J ; - = & V & = * : = ; 4   ",
"< X : . o > X : > > : = & X : * > > > > > > : & @ & : : * @ -   < X = * x 5 + + o o . > > X X & - ; ; - @ & * & = @ & : = - - 4 ",
"% . > . > > : > > : = ; & . : : > . > > > : & @ - = * * = - ; % 0 X = : o + + o . > > > . . : - ; ; - @ & & -.= - @ * X : * : @ ",
"% o > > > > , o . * ; ; : o . > > > > : * & @ - @ & * & = - ;   0 X = > + + 5 . : : > > o o & ; ; ; @ & * & = - - = : > > > > @ ",
"  O > > X > . o > = ; @ . o > > > : * = @ - - - = * : * = @ @ # % . : . 5 5 . : * : : > o X - ; ; - = * * = - - = * X > > > > ; ",
"# @ @ @ @ @ @ @ ; #   ; = @ - ; 4 # #     ;.    # @ @ @ ; 4 ; # % @ @ @ @ @ ; 4 # 4 ; @ @ #       # # # # #   # 4 - @ @ @ @ ; # "
};
